# xmcd
#
# Track frame offsets:
# 150
# 10217
# 32476
# 56251
# 66942
# 91139
# 115241
# 138475
# 162356
# 165730
# 181924
# 193379
# 209694
# 234585
# 245375
# 247463
# 261469
# 271689
#
# Disc length: 3869 seconds
#
#
# Revision: 0
# Processed by: cddbd v1.5.2PL0 Copyright (c) Steve Scherf et al.
# Submitted via: FreeRIP 2.945 
#
DISCID=080f1b12
DTITLE=Various Artist - Ten Fat Years (Disk 2)
DYEAR=2000
DGENRE=Blues
TTITLE0=The Neighborhood Toughs - Five Finger Boogie
TTITLE1=Rough Draft - Beverly Hillbilly Blues
TTITLE2=Fat Boy Slim Harpo - I'm A Hog For You, Baby
TTITLE3=Sidebar - Detour
TTITLE4=Fatt Bottom - Little Wing
TTITLE5=Chicken Shack (Part 2) - She Moves Me
TTITLE6=Little Kat - Walking The Dog
TTITLE7=Joe Payne - Flip, Flop and Fly
TTITLE8=The Rhythm Blues
TTITLE9=Frankie's Blues Mission - San-Ho-Zay
TTITLE10=Code Blue - What's The Matter With The Mill
TTITLE11=Heaven Davis - Let The Good Times Roll
TTITLE12=Magic Fred - Mojo
TTITLE13=Chilly Willy - Jake Jumps In
TTITLE14=The Tip Jar
TTITLE15=Tommy Preston - I'm Torn Down
TTITLE16=Blue Soul - Bluesoulo
TTITLE17=Big Royal and The Revue - The Royal Exit
EXTD=Live at Fat Matt's Rib Shack\nAtlanta, Georgia\nSep 10-16, 2000
EXTT0=
EXTT1=
EXTT2=
EXTT3=
EXTT4=
EXTT5=
EXTT6=
EXTT7=
EXTT8=
EXTT9=
EXTT10=
EXTT11=
EXTT12=
EXTT13=
EXTT14=
EXTT15=
EXTT16=
EXTT17=
PLAYORDER=
